<svg width="30" height="30" viewBox="0 0 30 30" fill="none" xmlns="http://www.w3.org/2000/svg">
<path d="M6.64537 24.298C7.40577 22.5065 9.18115 21.25 11.25 21.25H18.75C20.8189 21.25 22.5943 22.5065 23.3546 24.298M20 11.875C20 14.6364 17.7614 16.875 15 16.875C12.2386 16.875 10 14.6364 10 11.875C10 9.11357 12.2386 6.875 15 6.875C17.7614 6.875 20 9.11357 20 11.875ZM27.5 15C27.5 21.9035 21.9035 27.5 15 27.5C8.09644 27.5 2.5 21.9035 2.5 15C2.5 8.09644 8.09644 2.5 15 2.5C21.9035 2.5 27.5 8.09644 27.5 15Z" stroke="#004270" stroke-width="2" stroke-linecap="round" stroke-linejoin="round"/>
</svg>
